<svg xmlns="http://www.w3.org/2000/svg" id="Instagram" width="68.096" height="68.058" viewBox="0 0 68.096 68.058">
    <defs>
        <style>
            .cls-1{fill:#fff}
        </style>
    </defs>
    <g id="Groupe_512">
        <circle id="Ellipse_61" cx="3.993" cy="3.993" r="3.993" class="cls-1" transform="translate(48.068 12.183)"/>
        <path id="Tracé_4095" d="M44.112 27a16.752 16.752 0 1 0 16.752 16.778A16.752 16.752 0 0 0 44.112 27zm0 27.476a4.446 4.446 0 1 1 0 .026z" class="cls-1" transform="translate(-9.789 -9.723)"/>
        <path id="Tracé_4096" d="M61.25 81.558H34.106A20.476 20.476 0 0 1 13.63 61.081V33.976A20.476 20.476 0 0 1 34.106 13.5H61.25a20.476 20.476 0 0 1 20.476 20.476v27.157A20.476 20.476 0 0 1 61.25 81.558zM34.106 19.937a14.077 14.077 0 0 0-14.077 14.078v27.118A14.077 14.077 0 0 0 34.106 75.21H61.25a14.077 14.077 0 0 0 14.077-14.077V33.976A14.077 14.077 0 0 0 61.25 19.9z" class="cls-1" transform="translate(-13.63 -13.5)"/>
    </g>
</svg>
