<svg xmlns="http://www.w3.org/2000/svg" width="39.184" height="76.911" viewBox="0 0 39.184 76.911">
    <g>
        <path fill="#fff" d="M26.93 15.631a5.668 5.668 0 0 1 4.682-1.725 24.644 24.644 0 0 1 6.9 0l1.972-10.843a36.719 36.719 0 0 0-12.815-1.971 19.962 19.962 0 0 0-10.6 2.464A11.583 11.583 0 0 0 11.4 9.224a30.558 30.558 0 0 0-1.725 11.09V24.5H1.3v12.325h8.379v39.923a56.927 56.927 0 0 0 11.336 1.232h4.436V37.811h11.336V25.489H25.451v-3.943c0-3.204.249-4.929 1.479-5.915z" transform="translate(-1.3 -1.069)"/>
    </g>
</svg>
