<svg xmlns="http://www.w3.org/2000/svg" width="48.32" height="11.32" viewBox="0 0 48.32 11.32">
    <g>
        <g>
            <path fill="#0265b5" d="M4.808 3.062a.776.776 0 0 1 .641-.236 3.373 3.373 0 0 1 .944 0l.27-1.484a5.026 5.026 0 0 0-1.754-.27 2.732 2.732 0 0 0-1.45.337 1.585 1.585 0 0 0-.776.776A4.182 4.182 0 0 0 2.447 3.7v.573H1.3v1.69h1.147v5.464A7.792 7.792 0 0 0 4 11.6h.607V6.1h1.55V4.411H4.606v-.54c0-.438.033-.671.202-.809z" transform="translate(0 .562) translate(-1.3 -1.069)"/>
        </g>
    </g>
    <g>
        <g>
            <path fill="#43bdef" fill-rule="evenodd" d="M.83 9.814a5.721 5.721 0 0 0 2.59-.443 4.979 4.979 0 0 0 1.045-.62 2.32 2.32 0 0 1-1.09-.266A2.368 2.368 0 0 1 2.193 7.2a1.958 1.958 0 0 0 .909 0h-.591a2.368 2.368 0 0 1-1.227-2.7 2.551 2.551 0 0 0 1 .266l-.409-.354A2.471 2.471 0 0 1 1.6 1.538a7.055 7.055 0 0 0 4.546 2.346h.545a2.413 2.413 0 0 1 1.227-2.567 2.6 2.6 0 0 1 2.953.354.326.326 0 0 0 .273 0 4.619 4.619 0 0 0 1.318-.487 2.221 2.221 0 0 1-1.045 1.328A6.782 6.782 0 0 0 12.78 2.2a3.769 3.769 0 0 1-1.045 1.02.345.345 0 0 0 0 .221 6.8 6.8 0 0 1-1.727 4.735 6.678 6.678 0 0 1-4.18 2.3 7.442 7.442 0 0 1-4.953-.662z" transform="translate(16 1) translate(-.83 -1.011)"/>
        </g>
    </g>
    <g transform="translate(37)"/>
</svg>
