<svg xmlns="http://www.w3.org/2000/svg" width="22.58" height="22.557" viewBox="0 0 22.58 22.557">
    <g>
        <g>
            <path d="M7.131.183a7.133 7.133 0 0 1 5.942 11.086l.13.13a1.328 1.328 0 0 1 .288 1.39l1.331 1.331.157-.157a.174.174 0 0 1 .25 0l6.963 6.55a1.308 1.308 0 0 1-1.847 1.852L13.8 15.4a.174.174 0 0 1 0-.25l.158-.158-1.331-1.331a1.345 1.345 0 0 1-.467.087 1.244 1.244 0 0 1-.907-.391l-.119-.119a7.138 7.138 0 1 1-4-13.057zM20.585 22.1a.954.954 0 0 0 1.352 0 .927.927 0 0 0 .1-1.211l-.782.766a.157.157 0 0 1-.125.054.183.183 0 0 1-.125-.054.174.174 0 0 1 0-.25l.788-.771-6.7-6.3-.158.157-.625.625-.158.157zM14.2 14.745l.375-.375-1.268-1.27a1.193 1.193 0 0 1-.109.125l-.141.141a1.194 1.194 0 0 1-.125.109zm-2.7-1.635a.944.944 0 0 0 1.32 0l.141-.141a.944.944 0 0 0 0-1.32l-.087-.087a7.3 7.3 0 0 1-1.456 1.467zm-4.361.978A6.784 6.784 0 1 0 .347 7.3a6.793 6.793 0 0 0 6.784 6.788z" transform="translate(0 -.183)"/>
        </g>
    </g>
    <g>
        <g>
            <path d="M159.619 22.2a5.73 5.73 0 1 1-5.73 5.73 5.749 5.749 0 0 1 5.73-5.73zm0 11.107a5.377 5.377 0 1 0-5.377-5.377 5.4 5.4 0 0 0 5.377 5.378z" transform="translate(1.401 1.39) translate(-153.889 -22.201)"/>
        </g>
    </g>
    <g>
        <g>
            <path d="M238.716 42.26a4.642 4.642 0 0 1 4.2-2.314.179.179 0 0 1 0 .358 4.254 4.254 0 0 0-3.883 2.135.213.213 0 0 1-.158.087c-.038 0-.071 0-.087-.016a.18.18 0 0 1-.072-.25z" transform="translate(3.098 2.511) translate(-238.691 -39.942)"/>
        </g>
    </g>
</svg>
