<svg xmlns="http://www.w3.org/2000/svg" width="64.83" height="52.239" viewBox="0 0 64.83 52.239">
    <g>
        <path fill="#fff" fill-rule="evenodd" d="M.83 48.77a31.036 31.036 0 0 0 14.051-2.4 27.011 27.011 0 0 0 5.67-3.361 12.588 12.588 0 0 1-5.916-1.441 12.847 12.847 0 0 1-6.41-6.968 10.621 10.621 0 0 0 4.93 0h-3.2A12.845 12.845 0 0 1 3.3 19.958 13.838 13.838 0 0 0 8.718 21.4L6.5 19.478A13.4 13.4 0 0 1 5.021 3.871 38.278 38.278 0 0 0 29.671 16.6h2.958a13.09 13.09 0 0 1 6.655-13.929 14.089 14.089 0 0 1 16.023 1.92 1.767 1.767 0 0 0 1.479 0 25.057 25.057 0 0 0 7.149-2.641 12.051 12.051 0 0 1-5.67 7.2 36.8 36.8 0 0 0 7.4-1.681 20.446 20.446 0 0 1-5.67 5.522 1.873 1.873 0 0 0 0 1.2 36.867 36.867 0 0 1-9.367 25.691 36.229 36.229 0 0 1-22.683 12.489 40.373 40.373 0 0 1-26.869-3.6z" transform="translate(-.83 -1.011)"/>
    </g>
</svg>
